<svg width="162" height="162" viewBox="0 0 162 162" fill="none" xmlns="http://www.w3.org/2000/svg">
<g clip-path="url(#clip0_14715_20901)">
<path fill-rule="evenodd" clip-rule="evenodd" d="M138.548 2.2445C139.392 1.84103 140.391 1.9425 141.136 2.5075L146.946 6.91031L153.713 4.69713C154.593 4.40917 155.561 4.63164 156.227 5.27525C156.893 5.91886 157.149 6.87809 156.892 7.76793L154.89 14.69L159.455 20.4163C160.034 21.1425 160.162 22.1299 159.789 22.9803C159.415 23.8307 158.601 24.4038 157.674 24.4686L149.852 25.0158L145.997 30.6601C145.488 31.4049 144.618 31.8179 143.719 31.7409C142.821 31.6639 142.033 31.1088 141.659 30.2883L138.623 23.6406L131.817 20.902C130.98 20.5653 130.389 19.8037 130.271 18.9093C130.154 18.0148 130.527 17.1263 131.248 16.5843L136.886 12.3466L137.127 4.42392C137.156 3.48888 137.704 2.64798 138.548 2.2445ZM141.978 9.41862L141.847 13.6995C141.824 14.4584 141.457 15.1657 140.851 15.6218L137.796 17.918L141.416 19.3747C142.011 19.614 142.491 20.0726 142.757 20.6557L144.367 24.1818L146.406 21.1963C146.837 20.5651 147.534 20.1658 148.296 20.1124L152.579 19.8128L150.174 16.796C149.668 16.1618 149.502 15.3219 149.727 14.5428L150.775 10.9186L147.257 12.0694C146.477 12.3243 145.623 12.1809 144.97 11.6858L141.978 9.41862Z" fill="black"/>
<path d="M14.269 119.436C14.8624 119.97 15.6722 120.167 16.4021 120.04L15.1606 118.096L13.9558 116.087C13.2458 117.106 13.3217 118.583 14.269 119.436Z" fill="black"/>
<path d="M32.8865 121.101C28.3682 122.951 23.2876 124.119 18.8599 123.898C14.4639 123.678 11.042 122.133 9.08244 118.898L9.08116 118.896C7.32999 116.012 7.87712 114.288 8.47723 113.501C9.20126 112.55 10.511 112.162 11.6155 112.55C12.9592 113.024 13.6079 113.916 13.8811 114.746C14.0251 115.183 14.0549 115.579 14.029 115.857C14.0207 115.946 13.9558 116.087 13.9558 116.087L15.1606 118.096L16.4021 120.04C16.9346 119.948 17.4393 119.687 17.8289 119.254C18.6135 118.383 18.92 117.257 19.0074 116.321C19.1002 115.326 18.9787 114.24 18.6301 113.182C17.9183 111.02 16.217 108.871 13.2764 107.834L13.2751 107.834C10.1094 106.72 6.52848 107.807 4.49971 110.471C2.34725 113.297 2.27862 117.325 4.80585 121.489C7.91177 126.616 13.1971 128.621 18.6106 128.891C23.9925 129.16 29.8239 127.758 34.7806 125.729C36.0584 125.206 36.6703 123.746 36.1473 122.468C35.6242 121.19 34.1643 120.578 32.8865 121.101Z" fill="black"/>
<path fill-rule="evenodd" clip-rule="evenodd" d="M25.875 139.75C22.9065 139.75 20.5 142.156 20.5 145.125C20.5 148.094 22.9065 150.5 25.875 150.5C28.8435 150.5 31.25 148.094 31.25 145.125C31.25 142.156 28.8435 139.75 25.875 139.75ZM15.5 145.125C15.5 139.395 20.145 134.75 25.875 134.75C31.605 134.75 36.25 139.395 36.25 145.125C36.25 150.855 31.605 155.5 25.875 155.5C20.145 155.5 15.5 150.855 15.5 145.125Z" fill="black"/>
<path fill-rule="evenodd" clip-rule="evenodd" d="M57.0153 22.2548C57.0715 22.2513 57.1279 22.2497 57.1843 22.25C61.9239 22.2756 66.5293 23.5821 70.5397 25.9789C71.7249 26.6872 72.1115 28.2222 71.4032 29.4074C70.6949 30.5926 69.1599 30.9791 67.9747 30.2708C64.7479 28.3424 61.0484 27.2862 57.2415 27.2506C43.6426 28.1437 33.2837 39.8257 34.0389 53.4431C34.0441 53.5353 34.0441 53.6277 34.0389 53.7199C33.2836 67.339 43.6451 79.0222 57.2465 79.9127C61.2885 79.8918 65.235 78.7023 68.6102 76.4806C69.7635 75.7214 71.3138 76.041 72.073 77.1942C72.8321 78.3475 72.5126 79.8978 71.3593 80.657C67.145 83.431 62.2153 84.9059 57.1743 84.913C57.1213 84.9131 57.0682 84.9114 57.0153 84.9082C40.6789 83.8902 28.208 69.9125 29.0393 53.5815C28.208 37.2505 40.6789 23.2728 57.0153 22.2548Z" fill="black"/>
<path fill-rule="evenodd" clip-rule="evenodd" d="M54.9218 82.6824C55.8946 81.7257 57.4549 81.7257 58.4277 82.6824L68.0099 92.1058C68.0711 92.166 68.1291 92.2294 68.1838 92.2955C68.8845 93.1432 69.3 94.2074 69.3 95.3416C69.3 98.6331 66.219 100.465 63.5672 100.465H49.7823C48.7546 100.465 47.7202 100.222 46.7999 99.722C45.5171 99.0283 44.5378 97.8806 44.1862 96.4571C43.8281 95.0072 44.1827 93.4945 45.1592 92.3033C45.2158 92.2343 45.276 92.1684 45.3396 92.1058L54.9218 82.6824ZM56.6747 87.9712L49.1912 95.3309C49.3303 95.4054 49.534 95.4648 49.7823 95.4648H63.5672C63.8266 95.4648 64.0264 95.4014 64.159 95.3316L56.6747 87.9712ZM64.3295 95.2059C64.331 95.2034 64.332 95.2022 64.3321 95.2022C64.3322 95.2022 64.3314 95.2035 64.3295 95.2059Z" fill="black"/>
<path d="M57.0745 120.817L54.2118 120.658L51.349 120.5C48.0375 126.907 48.6433 135.427 53.1732 141.061L53.174 141.062L53.1787 141.068C54.0444 142.143 55.6181 142.313 56.6937 141.448C57.7693 140.582 57.9394 139.008 57.0737 137.933L57.0698 137.928L57.069 137.927C53.3074 133.247 53.3125 125.491 57.0745 120.817Z" fill="black"/>
<path d="M61.5546 109.316C61.8723 105.173 60.9335 100.835 58.1983 97.4336C57.3508 96.3795 55.8235 96.194 54.7501 97L54.6396 97.088C53.6062 97.9643 53.5692 99.6589 54.4224 100.72C56.099 102.898 56.8078 105.823 56.5692 108.934C56.3249 112.12 55.0948 115.299 53.1778 117.684C52.4735 118.559 51.8639 119.504 51.349 120.5L54.2118 120.658L57.0745 120.817C59.6555 117.607 61.237 113.457 61.5546 109.316Z" fill="black"/>
<path fill-rule="evenodd" clip-rule="evenodd" d="M95.6243 16C79.483 16 65.9092 30.8241 65.9092 49.7421C65.9092 68.6601 79.483 83.4842 95.6243 83.4842C111.766 83.4842 125.34 68.6601 125.34 49.7421C125.34 30.8241 111.766 16 95.6243 16ZM60.9092 49.7421C60.9092 28.6327 76.1841 11 95.6243 11C115.065 11 130.34 28.6327 130.34 49.7421C130.34 70.8515 115.065 88.4842 95.6243 88.4842C76.1841 88.4842 60.9092 70.8515 60.9092 49.7421Z" fill="black"/>
<path fill-rule="evenodd" clip-rule="evenodd" d="M95.6213 83.6504C96.3698 83.6504 97.0788 83.9857 97.5537 84.5642L109.593 99.2315C109.594 99.2328 109.595 99.2341 109.597 99.2354C110.387 100.193 110.849 101.386 110.849 102.651C110.849 106.315 107.396 108.449 104.285 108.449H86.9573C85.7651 108.449 84.5712 108.167 83.5146 107.593C82.0407 106.796 80.9401 105.492 80.5467 103.899C80.1469 102.28 80.5393 100.586 81.6429 99.2393L93.689 84.5642C94.1638 83.9857 94.8729 83.6504 95.6213 83.6504ZM95.6213 90.0907L85.5096 102.409C85.5094 102.409 85.5098 102.409 85.5096 102.409C85.4293 102.507 85.4065 102.576 85.3996 102.606C85.3925 102.636 85.3921 102.665 85.4009 102.7C85.4156 102.76 85.5 102.982 85.8935 103.195L85.9011 103.199C86.1766 103.349 86.5417 103.449 86.9573 103.449H104.285C104.869 103.449 105.32 103.254 105.583 103.041C105.841 102.832 105.849 102.679 105.849 102.651C105.849 102.625 105.841 102.54 105.74 102.417L105.734 102.41L95.6213 90.0907Z" fill="black"/>
<path fill-rule="evenodd" clip-rule="evenodd" d="M97.3559 105.813C98.5639 106.482 99.001 108.003 98.3323 109.211C95.2309 114.814 96.0839 121.973 100.912 126.727C100.912 126.727 100.912 126.728 100.913 126.728L100.92 126.735C108.785 134.479 108.785 147.038 100.92 154.782C99.936 155.751 98.3531 155.738 97.3844 154.755C96.4157 153.771 96.428 152.188 97.4118 151.219C103.287 145.434 103.288 136.084 97.4127 130.299C97.4124 130.298 97.4121 130.298 97.4118 130.298L97.4047 130.291C90.9431 123.929 89.7926 114.314 93.9579 106.79C94.6266 105.582 96.148 105.145 97.3559 105.813Z" fill="black"/>
</g>
<defs>
<clipPath id="clip0_14715_20901">
<rect width="162" height="162" fill="white"/>
</clipPath>
</defs>
</svg>
