<svg width="162" height="162" viewBox="0 0 162 162" fill="none" xmlns="http://www.w3.org/2000/svg">
<path fill-rule="evenodd" clip-rule="evenodd" d="M81 157C122.974 157 157 122.974 157 81C157 39.0264 122.974 5 81 5C39.0264 5 5 39.0264 5 81C5 122.974 39.0264 157 81 157ZM81 162C125.735 162 162 125.735 162 81C162 36.2649 125.735 0 81 0C36.2649 0 0 36.2649 0 81C0 125.735 36.2649 162 81 162Z" fill="black"/>
<path fill-rule="evenodd" clip-rule="evenodd" d="M58.9822 58.9822C59.9585 58.0059 61.5415 58.0059 62.5178 58.9822L103.018 99.4822C103.994 100.459 103.994 102.041 103.018 103.018C102.041 103.994 100.459 103.994 99.4822 103.018L58.9822 62.5178C58.0059 61.5415 58.0059 59.9585 58.9822 58.9822Z" fill="black"/>
<path fill-rule="evenodd" clip-rule="evenodd" d="M103.018 58.9822C102.041 58.0059 100.459 58.0059 99.4822 58.9822L58.9822 99.4822C58.0059 100.459 58.0059 102.041 58.9822 103.018C59.9585 103.994 61.5415 103.994 62.5178 103.018L103.018 62.5178C103.994 61.5415 103.994 59.9585 103.018 58.9822Z" fill="black"/>
</svg>
