<svg width="162" height="162" viewBox="0 0 162 162" fill="none" xmlns="http://www.w3.org/2000/svg">
<path fill-rule="evenodd" clip-rule="evenodd" d="M100.976 16.3104L100.975 16.3113L19.098 98.1981C17.4021 99.8942 16.286 102.083 15.9093 104.452L15.9092 104.453L10.5793 138.082L10.5792 138.083C10.3373 139.604 10.4418 141.16 10.8847 142.636C11.3277 144.111 12.0977 145.467 13.1375 146.603C14.1773 147.74 15.4601 148.627 16.8903 149.199C18.3205 149.771 19.8612 150.013 21.3979 149.906L58.6588 147.346L58.6606 147.346C61.4004 147.16 63.9804 145.989 65.9248 144.05L147.319 62.6557C150.028 59.9379 151.549 56.2574 151.549 52.4204C151.549 48.5835 150.028 44.903 147.319 42.1851L121.445 16.3113L121.444 16.3102C118.727 13.6024 115.047 12.082 111.21 12.082C107.374 12.082 103.693 13.6025 100.976 16.3104ZM97.4454 12.7696C101.1 9.12724 106.05 7.08203 111.21 7.08203C116.37 7.08203 121.32 9.12724 124.975 12.7696L124.978 12.7727L150.858 38.6527L150.861 38.6557C154.503 42.3107 156.549 47.2604 156.549 52.4204C156.549 57.5805 154.503 62.5301 150.861 66.1851L150.858 66.1882L69.4579 147.588L69.4555 147.591C66.6572 150.381 62.9443 152.066 59.0015 152.335M58.9997 152.335L21.7425 154.894C19.4558 155.052 17.1621 154.692 15.0339 153.841C12.9053 152.99 10.9962 151.67 9.44872 149.979C7.90121 148.288 6.75516 146.269 6.09593 144.073C5.4368 141.878 5.2813 139.563 5.64098 137.299L5.64117 137.298L10.971 103.669L10.9711 103.668C11.5133 100.257 13.1203 97.105 15.5623 94.6628L97.4454 12.7696" fill="black"/>
<path fill-rule="evenodd" clip-rule="evenodd" d="M86.4224 25.0016C87.3988 24.0254 88.9817 24.0255 89.9579 25.0019L139.248 74.3019C140.224 75.2784 140.224 76.8613 139.248 77.8375C138.271 78.8137 136.688 78.8135 135.712 77.8371L86.422 28.5371C85.4458 27.5607 85.4459 25.9778 86.4224 25.0016Z" fill="black"/>
</svg>
