<svg width="162" height="162" viewBox="0 0 162 162" fill="none" xmlns="http://www.w3.org/2000/svg">
<g clip-path="url(#clip0_14702_12022)">
<path fill-rule="evenodd" clip-rule="evenodd" d="M81.25 78.84C82.6307 78.84 83.75 79.9593 83.75 81.34V89.31C83.75 90.6907 82.6307 91.81 81.25 91.81C79.8693 91.81 78.75 90.6907 78.75 89.31V81.34C78.75 79.9593 79.8693 78.84 81.25 78.84Z" fill="black"/>
<path fill-rule="evenodd" clip-rule="evenodd" d="M81.2982 85.4305C81.9697 85.4433 82.6078 85.7258 83.0687 86.2143L94.0987 97.9043C95.0463 98.9086 95.0003 100.491 93.996 101.438C92.9918 102.386 91.4095 102.34 90.462 101.336L81.182 91.5004L72.1117 100.404C71.1263 101.371 69.5435 101.357 68.5763 100.371C67.6091 99.386 67.6237 97.8031 68.609 96.8359L79.499 86.1459C79.9783 85.6754 80.6267 85.4176 81.2982 85.4305Z" fill="black"/>
<path fill-rule="evenodd" clip-rule="evenodd" d="M123.38 85.07C105.42 85.07 90.8604 99.6297 90.8604 117.59C90.8604 135.55 105.42 150.11 123.38 150.11C141.341 150.11 155.9 135.55 155.9 117.59C155.9 99.6297 141.341 85.07 123.38 85.07ZM85.8604 117.59C85.8604 96.8683 102.659 80.07 123.38 80.07C144.102 80.07 160.9 96.8683 160.9 117.59C160.9 138.312 144.102 155.11 123.38 155.11C102.659 155.11 85.8604 138.312 85.8604 117.59Z" fill="black"/>
<path fill-rule="evenodd" clip-rule="evenodd" d="M123.178 118.48C123.178 118.48 123.181 118.483 123.183 118.486C123.192 118.496 123.21 118.515 123.236 118.543C123.288 118.599 123.374 118.688 123.492 118.804C123.728 119.036 124.087 119.37 124.553 119.744C125.496 120.5 126.819 121.377 128.396 121.951C129.955 122.519 131.73 122.782 133.66 122.375C135.584 121.969 137.857 120.858 140.352 118.362C141.328 117.386 142.911 117.386 143.888 118.362C144.864 119.339 144.864 120.921 143.888 121.898C140.823 124.962 137.713 126.631 134.691 127.267C131.675 127.903 128.94 127.471 126.684 126.649C124.445 125.833 122.648 124.625 121.425 123.644C120.808 123.149 120.323 122.701 119.985 122.368C119.816 122.202 119.682 122.063 119.587 121.961C119.539 121.91 119.501 121.869 119.473 121.837L119.437 121.797L119.425 121.783L119.42 121.778L119.418 121.775C119.418 121.775 119.416 121.773 121.3 120.13L119.416 121.773C118.508 120.733 118.616 119.154 119.656 118.246C120.695 117.34 122.269 117.446 123.178 118.48Z" fill="black"/>
<path d="M119.94 111.66C122.332 111.66 124.27 109.721 124.27 107.33C124.27 104.939 122.332 103 119.94 103C117.549 103 115.61 104.939 115.61 107.33C115.61 109.721 117.549 111.66 119.94 111.66Z" fill="black"/>
<path d="M139.75 111.66C142.141 111.66 144.08 109.721 144.08 107.33C144.08 104.939 142.141 103 139.75 103C137.359 103 135.42 104.939 135.42 107.33C135.42 109.721 137.359 111.66 139.75 111.66Z" fill="black"/>
<path fill-rule="evenodd" clip-rule="evenodd" d="M38.8501 85.07C20.8898 85.07 6.33008 99.6297 6.33008 117.59C6.33008 135.55 20.8898 150.11 38.8501 150.11C56.8104 150.11 71.3701 135.55 71.3701 117.59C71.3701 99.6297 56.8104 85.07 38.8501 85.07ZM1.33008 117.59C1.33008 96.8683 18.1284 80.07 38.8501 80.07C59.5718 80.07 76.3701 96.8683 76.3701 117.59C76.3701 138.312 59.5718 155.11 38.8501 155.11C18.1284 155.11 1.33008 138.312 1.33008 117.59Z" fill="black"/>
<path d="M23.7304 111.66C26.1218 111.66 28.0604 109.721 28.0604 107.33C28.0604 104.939 26.1218 103 23.7304 103C21.339 103 19.4004 104.939 19.4004 107.33C19.4004 109.721 21.339 111.66 23.7304 111.66Z" fill="black"/>
<path d="M43.54 111.66C45.9314 111.66 47.87 109.721 47.87 107.33C47.87 104.939 45.9314 103 43.54 103C41.1486 103 39.21 104.939 39.21 107.33C39.21 109.721 41.1486 111.66 43.54 111.66Z" fill="black"/>
<path fill-rule="evenodd" clip-rule="evenodd" d="M25.1074 118.48C25.1074 118.48 25.1074 118.48 25.1074 118.48C25.1084 118.481 25.1103 118.483 25.1132 118.486C25.122 118.496 25.1395 118.515 25.1656 118.543C25.2178 118.599 25.3038 118.688 25.4214 118.804C25.6575 119.036 26.0168 119.37 26.4831 119.744C27.4261 120.5 28.7491 121.377 30.3254 121.951C31.8844 122.519 33.6596 122.782 35.5896 122.375C37.5136 121.969 39.7862 120.858 42.2818 118.362C43.2581 117.386 44.841 117.386 45.8173 118.362C46.7936 119.339 46.7936 120.921 45.8173 121.898C42.7529 124.962 39.643 126.631 36.6207 127.267C33.6044 127.903 30.8697 127.471 28.6137 126.649C26.375 125.833 24.5779 124.625 23.3547 123.644C22.7379 123.149 22.2525 122.701 21.9146 122.368C21.7454 122.202 21.6121 122.063 21.5168 121.961C21.4691 121.91 21.4308 121.869 21.4022 121.837L21.3666 121.797L21.3542 121.783L21.3494 121.778L21.3474 121.775C21.3465 121.774 21.3456 121.773 23.2295 120.13L21.3456 121.773C20.438 120.733 20.5457 119.154 21.5861 118.246C22.6243 117.34 24.1988 117.446 25.1074 118.48Z" fill="black"/>
<path fill-rule="evenodd" clip-rule="evenodd" d="M81.98 12.33C64.0197 12.33 49.46 26.8897 49.46 44.85C49.46 62.8103 64.0197 77.37 81.98 77.37C99.9403 77.37 114.5 62.8103 114.5 44.85C114.5 26.8897 99.9403 12.33 81.98 12.33ZM44.46 44.85C44.46 24.1283 61.2582 7.32999 81.98 7.32999C102.702 7.32999 119.5 24.1283 119.5 44.85C119.5 65.5717 102.702 82.37 81.98 82.37C61.2582 82.37 44.46 65.5717 44.46 44.85Z" fill="black"/>
<path d="M97.1103 38.92C99.5017 38.92 101.44 36.9814 101.44 34.59C101.44 32.1986 99.5017 30.26 97.1103 30.26C94.7189 30.26 92.7803 32.1986 92.7803 34.59C92.7803 36.9814 94.7189 38.92 97.1103 38.92Z" fill="black"/>
<path d="M77.2997 38.92C79.6911 38.92 81.6297 36.9814 81.6297 34.59C81.6297 32.1986 79.6911 30.26 77.2997 30.26C74.9083 30.26 72.9697 32.1986 72.9697 34.59C72.9697 36.9814 74.9083 38.92 77.2997 38.92Z" fill="black"/>
<path fill-rule="evenodd" clip-rule="evenodd" d="M95.7224 45.7397C96.6309 44.7057 98.2055 44.6004 99.2437 45.506C100.284 46.4136 100.392 47.9929 99.4842 49.0334L97.6003 47.39C99.4842 49.0334 99.4833 49.0344 99.4824 49.0355L99.4804 49.0378L99.4756 49.0433L99.4632 49.0572L99.4276 49.097C99.399 49.1287 99.3607 49.1705 99.313 49.2214C99.2177 49.3231 99.0844 49.4615 98.9152 49.6281C98.5773 49.9606 98.0919 50.4092 97.4751 50.9039C96.2519 51.8851 94.4548 53.0933 92.2161 53.9089C89.9601 54.7309 87.2254 55.1632 84.2091 54.5275C81.1868 53.8905 78.0769 52.2222 75.0125 49.1578C74.0362 48.1814 74.0362 46.5985 75.0125 45.6222C75.9888 44.6459 77.5717 44.6459 78.548 45.6222C81.0436 48.1178 83.3162 49.2295 85.2402 49.635C87.1702 50.0417 88.9454 49.7791 90.5044 49.211C92.0807 48.6367 93.4037 47.7599 94.3467 47.0035C94.813 46.6295 95.1723 46.2963 95.4084 46.0641C95.526 45.9483 95.612 45.8587 95.6642 45.8029C95.6903 45.7751 95.7078 45.7558 95.7166 45.7461C95.7194 45.743 95.7213 45.7408 95.7223 45.7397C95.7224 45.7397 95.7224 45.7397 95.7224 45.7397Z" fill="black"/>
</g>
<defs>
<clipPath id="clip0_14702_12022">
<rect width="160.23" height="148.44" fill="white" transform="translate(1 7)"/>
</clipPath>
</defs>
</svg>
