<svg width="162" height="162" viewBox="0 0 162 162" fill="none" xmlns="http://www.w3.org/2000/svg">
<path fill-rule="evenodd" clip-rule="evenodd" d="M55.4607 97.3528C55.4607 97.3528 55.4608 97.3528 55.4608 97.3528C55.4612 97.3533 55.4618 97.354 55.4627 97.355L55.4856 97.3805C55.5089 97.4063 55.548 97.4492 55.6027 97.5075C55.712 97.6242 55.8828 97.8022 56.1116 98.0272C56.5698 98.4781 57.2561 99.114 58.1416 99.8244C59.9231 101.253 62.4536 102.937 65.5061 104.05C68.5413 105.156 72.0615 105.688 75.9047 104.877C79.7419 104.068 84.0963 101.881 88.7419 97.2327C89.718 96.2561 91.3009 96.2557 92.2774 97.2318C93.254 98.2078 93.2544 99.7907 92.2783 100.767C87.0639 105.984 81.872 108.729 76.9362 109.77C72.0062 110.809 67.5264 110.108 63.7941 108.748C60.0792 107.394 57.0746 105.378 55.013 103.725C53.977 102.894 53.1647 102.142 52.6047 101.591C52.3243 101.315 52.1061 101.089 51.9537 100.926C51.8775 100.845 51.8176 100.779 51.7746 100.731C51.7531 100.708 51.7357 100.688 51.7226 100.673L51.7062 100.655L51.7003 100.648L51.698 100.646C51.6971 100.644 51.6961 100.643 53.5801 99L51.6961 100.643C50.7885 99.6028 50.8963 98.0236 51.9368 97.116C52.976 96.2095 54.5526 96.3159 55.4607 97.3528Z" fill="black"/>
<path fill-rule="evenodd" clip-rule="evenodd" d="M74.2949 5.3799C38.2771 5.01598 8.35769 36.8046 7.93004 76.9067C7.91531 78.2873 6.78415 79.3946 5.40352 79.3799C4.02289 79.3652 2.9156 78.234 2.93032 76.8534C3.38267 34.4354 35.1432 -0.0159359 74.3454 0.380152C113.551 0.776274 144.582 35.9302 144.13 78.3467C144.115 79.7273 142.984 80.8346 141.604 80.8199C140.223 80.8052 139.116 79.674 139.13 78.2934C139.558 38.1898 110.309 5.74377 74.2949 5.3799Z" fill="black"/>
<path fill-rule="evenodd" clip-rule="evenodd" d="M5.44627 75.5001C6.8269 75.5148 7.93427 76.6458 7.91965 78.0265C7.51331 116.397 37.106 147.666 73.826 148.05C75.2066 148.065 76.3141 149.196 76.2997 150.576C76.2852 151.957 75.1543 153.064 73.7736 153.05C34.1136 152.634 2.48628 118.923 2.91993 77.9735C2.93456 76.5929 4.06563 75.4855 5.44627 75.5001Z" fill="black"/>
<path fill-rule="evenodd" clip-rule="evenodd" d="M141.589 75.5002C142.97 75.4832 144.103 76.5887 144.12 77.9693C144.231 86.9862 142.887 95.9619 140.141 104.551C139.721 105.866 138.314 106.592 136.999 106.171C135.684 105.751 134.958 104.344 135.379 103.029C137.961 94.9512 139.224 86.5103 139.12 78.0307C139.103 76.6501 140.209 75.5172 141.589 75.5002Z" fill="black"/>
<path d="M71.2898 161.11C77.3484 161.11 82.2598 156.199 82.2598 150.14C82.2598 144.081 77.3484 139.17 71.2898 139.17C65.2313 139.17 60.3198 144.081 60.3198 150.14C60.3198 156.199 65.2313 161.11 71.2898 161.11Z" fill="black"/>
<path fill-rule="evenodd" clip-rule="evenodd" d="M47.2598 68.27C42.4656 68.27 38.2798 72.4996 38.2798 78.1C38.2798 79.4807 37.1605 80.6 35.7798 80.6C34.3991 80.6 33.2798 79.4807 33.2798 78.1C33.2798 70.0804 39.374 63.27 47.2598 63.27C55.1456 63.27 61.2398 70.0804 61.2398 78.1C61.2398 79.4807 60.1205 80.6 58.7398 80.6C57.3591 80.6 56.2398 79.4807 56.2398 78.1C56.2398 72.4996 52.054 68.27 47.2598 68.27Z" fill="black"/>
<path fill-rule="evenodd" clip-rule="evenodd" d="M93.5698 68.27C88.7757 68.27 84.5898 72.4996 84.5898 78.1C84.5898 79.4807 83.4706 80.6 82.0898 80.6C80.7091 80.6 79.5898 79.4807 79.5898 78.1C79.5898 70.0804 85.684 63.27 93.5698 63.27C101.456 63.27 107.55 70.0804 107.55 78.1C107.55 79.4807 106.431 80.6 105.05 80.6C103.669 80.6 102.55 79.4807 102.55 78.1C102.55 72.4996 98.364 68.27 93.5698 68.27Z" fill="black"/>
<path fill-rule="evenodd" clip-rule="evenodd" d="M147.412 55.8412C144.398 52.9659 140.912 51.7191 137.623 52.2839C136.263 52.5177 134.97 51.604 134.736 50.2432C134.502 48.8824 135.416 47.5898 136.777 47.3561C141.989 46.4609 147.002 48.5391 150.863 52.2238C154.726 55.9089 157.581 61.3077 158.663 67.5209C159.746 73.7395 158.864 79.7924 156.454 84.5615C154.044 89.3288 150.003 92.9674 144.785 93.8454C143.423 94.0744 142.134 93.1563 141.905 91.7948C141.676 90.4332 142.594 89.1437 143.955 88.9147C147.237 88.3626 150.111 86.0262 151.991 82.306C153.871 78.5876 154.654 73.6405 153.737 68.3791C152.82 63.1123 150.425 58.7161 147.412 55.8412Z" fill="black"/>
</svg>
