<svg width="162" height="162" viewBox="0 0 162 162" fill="none" xmlns="http://www.w3.org/2000/svg">
<path fill-rule="evenodd" clip-rule="evenodd" d="M119.315 78.7358C120.566 78.1504 122.054 78.6896 122.639 79.9401L142.558 122.494C142.593 122.568 142.624 122.644 142.651 122.721C144.142 126.941 144.599 131.457 143.985 135.89C143.37 140.323 141.702 144.543 139.119 148.197C136.537 151.85 133.115 154.829 129.143 156.883C125.171 158.937 120.765 160.006 116.294 160H52.4616C47.9899 160.009 43.5816 158.941 39.6081 156.888C35.6345 154.834 32.2123 151.855 29.6291 148.201C27.046 144.547 25.3776 140.325 24.764 135.891C24.1505 131.456 24.6098 126.94 26.1034 122.72C26.1248 122.66 26.1485 122.6 26.1745 122.541L42.4022 85.9221C42.9615 84.6598 44.4383 84.0899 45.7007 84.6493C46.963 85.2087 47.5328 86.6855 46.9734 87.9478L30.7857 124.477C29.5839 127.917 29.2173 131.594 29.7169 135.205C30.2208 138.847 31.591 142.314 33.712 145.315C35.8329 148.315 38.6424 150.761 41.9036 152.446C45.1648 154.131 48.7823 155.007 52.4517 155L52.4567 155H116.298L116.301 155C119.97 155.005 123.586 154.128 126.847 152.442C130.107 150.756 132.916 148.31 135.036 145.31C137.157 142.311 138.527 138.844 139.032 135.203C139.532 131.601 139.169 127.933 137.976 124.5L118.111 82.0598C117.525 80.8093 118.065 79.3211 119.315 78.7358Z" fill="black"/>
<path fill-rule="evenodd" clip-rule="evenodd" d="M80.75 7C56.0904 7 36 27.4832 36 52.875C36 78.2668 56.0904 98.75 80.75 98.75C105.41 98.75 125.5 78.2668 125.5 52.875C125.5 27.4832 105.41 7 80.75 7ZM31 52.875C31 24.8333 53.2187 2 80.75 2C108.281 2 130.5 24.8333 130.5 52.875C130.5 80.9167 108.281 103.75 80.75 103.75C53.2187 103.75 31 80.9167 31 52.875Z" fill="black"/>
<path fill-rule="evenodd" clip-rule="evenodd" d="M65.3806 60.4259C65.3806 60.4259 65.3806 60.4259 65.3806 60.4259C65.3809 60.4262 65.3813 60.4267 65.3819 60.4273L65.4019 60.4496C65.4226 60.4726 65.4579 60.5113 65.5075 60.5642C65.6067 60.6702 65.7625 60.8325 65.9716 61.0383C66.3904 61.4505 67.0189 62.033 67.8303 62.6839C69.4634 63.9942 71.7804 65.5356 74.5723 66.553C77.3468 67.5641 80.5592 68.0484 84.0655 67.3093C87.5659 66.5714 91.5542 64.5735 95.8223 60.3054C96.7986 59.3291 98.3815 59.3291 99.3578 60.3054C100.334 61.2817 100.334 62.8646 99.3578 63.8409C94.5209 68.6778 89.6954 71.2324 85.0968 72.2018C80.504 73.1699 76.332 72.516 72.8603 71.2508C69.4059 69.992 66.6148 68.119 64.7014 66.5839C63.7395 65.8122 62.985 65.1143 62.4643 64.6018C62.2036 64.3452 62.0005 64.1341 61.8582 63.9822C61.787 63.9062 61.7309 63.8449 61.6904 63.8001C61.6702 63.7776 61.6538 63.7593 61.6414 63.7452L61.6256 63.7274L61.62 63.721L61.6177 63.7184C61.6168 63.7173 61.6158 63.7163 63.5 62.0732L61.6158 63.7163C60.7084 62.6757 60.8163 61.0964 61.8569 60.189C62.8961 59.2827 64.4725 59.3891 65.3806 60.4259Z" fill="black"/>
<path d="M66.13 44.26C68.9632 44.26 71.26 41.9632 71.26 39.13C71.26 36.2968 68.9632 34 66.13 34C63.2968 34 61 36.2968 61 39.13C61 41.9632 63.2968 44.26 66.13 44.26Z" fill="black"/>
<path d="M94.5997 44.26C97.433 44.26 99.7297 41.9632 99.7297 39.13C99.7297 36.2968 97.433 34 94.5997 34C91.7665 34 89.4697 36.2968 89.4697 39.13C89.4697 41.9632 91.7665 44.26 94.5997 44.26Z" fill="black"/>
<path d="M79 118.5L66 110V127L79 118.5Z" fill="black"/>
<path fill-rule="evenodd" clip-rule="evenodd" d="M63.9321 106.482C65.1244 105.804 66.5815 105.844 67.7375 106.585L81.2375 115.238C82.3339 115.941 83 117.174 83 118.5C83 119.826 82.3339 121.059 81.2375 121.762L67.7375 130.415C66.5815 131.156 65.1244 131.196 63.9321 130.518C62.7398 129.84 62 128.552 62 127.154V109.846C62 108.448 62.7398 107.16 63.9321 106.482ZM69.5 116.786V120.214L72.1745 118.5L69.5 116.786Z" fill="black"/>
<path d="M83 118.5L96 127V110L83 118.5Z" fill="black"/>
<path fill-rule="evenodd" clip-rule="evenodd" d="M98.0679 106.482C99.2602 107.16 100 108.448 100 109.846V127.154C100 128.552 99.2602 129.84 98.0679 130.518C96.8756 131.196 95.4185 131.156 94.2625 130.415L80.7625 121.762C79.6661 121.059 79 119.826 79 118.5C79 117.174 79.6661 115.941 80.7625 115.238L94.2625 106.585C95.4185 105.844 96.8756 105.804 98.0679 106.482ZM89.8255 118.5L92.5 120.214V116.786L89.8255 118.5Z" fill="black"/>
</svg>
