<svg width="162" height="162" viewBox="0 0 162 162" fill="none" xmlns="http://www.w3.org/2000/svg">
<path fill-rule="evenodd" clip-rule="evenodd" d="M64.125 7C32.5757 7 7 32.5757 7 64.125C7 95.6743 32.5757 121.25 64.125 121.25C95.6743 121.25 121.25 95.6743 121.25 64.125C121.25 32.5757 95.6743 7 64.125 7ZM2 64.125C2 29.8143 29.8143 2 64.125 2C98.4357 2 126.25 29.8143 126.25 64.125C126.25 98.4357 98.4357 126.25 64.125 126.25C29.8143 126.25 2 98.4357 2 64.125Z" fill="black"/>
<path fill-rule="evenodd" clip-rule="evenodd" d="M106.232 106.232C107.209 105.256 108.791 105.256 109.768 106.232L160.393 156.857C161.369 157.834 161.369 159.416 160.393 160.393C159.416 161.369 157.834 161.369 156.857 160.393L106.232 109.768C105.256 108.791 105.256 107.209 106.232 106.232Z" fill="black"/>
</svg>
