<svg width="162" height="162" viewBox="0 0 162 162" fill="none" xmlns="http://www.w3.org/2000/svg">
<path fill-rule="evenodd" clip-rule="evenodd" d="M134.497 17.4077C128.582 14.3556 121.993 12.8437 115.339 13.0117C108.685 13.1798 102.181 15.0224 96.4272 18.3693C90.6737 21.7161 85.8567 26.4593 82.4212 32.1603L78.1387 29.5797C82.0079 23.1588 87.4332 17.8168 93.9131 14.0473C100.393 10.2779 107.719 8.20263 115.213 8.01334C122.707 7.82404 130.128 9.52682 136.79 12.9643C143.452 16.4018 149.14 21.4631 153.328 27.6805C157.517 33.8978 160.071 41.0706 160.754 48.536C161.436 56.0014 160.227 63.5185 157.236 70.3926C154.245 77.2668 149.57 83.2761 143.642 87.8653C137.714 92.4545 130.725 95.4755 123.321 96.6492L122.539 91.7108C129.113 90.6688 135.318 87.9864 140.581 83.9117C145.844 79.837 149.995 74.5013 152.651 68.3979C155.306 62.2944 156.381 55.62 155.774 48.9915C155.168 42.3631 152.901 35.9944 149.182 30.474C145.463 24.9537 140.412 20.4598 134.497 17.4077Z" fill="black"/>
<path fill-rule="evenodd" clip-rule="evenodd" d="M112.206 53.7659C113.245 52.8601 114.82 52.9658 115.729 54.0009L115.739 54.0127C115.752 54.0266 115.775 54.0521 115.809 54.0879C115.876 54.1596 115.984 54.2723 116.13 54.4167C116.424 54.7061 116.869 55.1185 117.445 55.5804C118.606 56.5126 120.244 57.6003 122.204 58.3151C124.146 59.0236 126.374 59.3563 128.799 58.8444C131.218 58.3337 134.029 56.9417 137.08 53.8842C138.055 52.9068 139.638 52.905 140.615 53.8802C141.593 54.8555 141.595 56.4384 140.619 57.4158C137 61.0433 133.351 62.9937 129.832 63.7366C126.319 64.4781 123.13 63.9752 120.491 63.0124C117.868 62.056 115.757 60.6368 114.315 59.4799C113.589 58.8973 113.019 58.3696 112.623 57.9801C112.425 57.7849 112.269 57.6235 112.159 57.5058C112.104 57.447 112.06 57.399 112.028 57.3632L111.988 57.3186L111.975 57.3035L111.969 57.2977L111.967 57.2953C111.966 57.2942 111.966 57.2932 113.85 55.65L111.966 57.2932C111.058 56.2526 111.166 54.6734 112.206 53.7659Z" fill="black"/>
<path d="M112.21 45.47C115.087 45.47 117.42 43.1374 117.42 40.26C117.42 37.3826 115.087 35.05 112.21 35.05C109.333 35.05 107 37.3826 107 40.26C107 43.1374 109.333 45.47 112.21 45.47Z" fill="black"/>
<path d="M136.03 45.47C138.908 45.47 141.24 43.1374 141.24 40.26C141.24 37.3826 138.908 35.05 136.03 35.05C133.153 35.05 130.82 37.3826 130.82 40.26C130.82 43.1374 133.153 45.47 136.03 45.47Z" fill="black"/>
<path fill-rule="evenodd" clip-rule="evenodd" d="M47.2307 13.09C38.7773 12.7606 30.4409 15.1492 23.4445 19.9051C16.4482 24.6611 11.1602 31.5341 8.35647 39.5158C5.55273 47.4974 5.38083 56.1676 7.86599 64.2541C10.3511 72.3407 15.3625 79.4179 22.1649 84.4474C28.9672 89.477 37.2024 92.194 45.6622 92.2L45.6587 97.2C36.1299 97.1933 26.8541 94.1329 19.1923 88.4678C11.5304 82.8028 5.88577 74.8313 3.08659 65.7229C0.287417 56.6146 0.481038 46.8489 3.63905 37.8587C6.79707 28.8684 12.7532 21.127 20.6336 15.77C28.514 10.4131 37.9038 7.72282 47.4254 8.0938C56.9469 8.46479 66.0989 11.8776 73.5386 17.8314C80.9783 23.7852 86.3141 31.9666 88.763 41.1753C91.212 50.384 90.6451 60.1352 87.1458 68.9981L82.4951 67.1619C85.602 59.2932 86.1052 50.636 83.931 42.4604C81.7568 34.2847 77.0196 27.0211 70.4145 21.7352C63.8094 16.4493 55.6841 13.4194 47.2307 13.09Z" fill="black"/>
<path d="M27.4698 45.47C30.3472 45.47 32.6798 43.1374 32.6798 40.26C32.6798 37.3826 30.3472 35.05 27.4698 35.05C24.5924 35.05 22.2598 37.3826 22.2598 40.26C22.2598 43.1374 24.5924 45.47 27.4698 45.47Z" fill="black"/>
<path d="M51.2901 45.47C54.1675 45.47 56.5001 43.1374 56.5001 40.26C56.5001 37.3826 54.1675 35.05 51.2901 35.05C48.4127 35.05 46.0801 37.3826 46.0801 40.26C46.0801 43.1374 48.4127 45.47 51.2901 45.47Z" fill="black"/>
<path fill-rule="evenodd" clip-rule="evenodd" d="M25.2368 53.7659C26.2754 52.8601 27.8506 52.9658 28.7589 54.0009L28.7695 54.0127C28.782 54.0266 28.8053 54.0521 28.8388 54.0879C28.9059 54.1596 29.0141 54.2723 29.1607 54.4167C29.4547 54.7061 29.8994 55.1185 30.475 55.5804C31.6366 56.5126 33.274 57.6003 35.234 58.3151C37.1767 59.0236 39.4045 59.3563 41.8295 58.8444C44.2486 58.3337 47.0596 56.9417 50.1102 53.8842C51.0854 52.9068 52.6683 52.905 53.6457 53.8802C54.6231 54.8555 54.6249 56.4384 53.6497 57.4158C50.0303 61.0433 46.3813 62.9937 42.8622 63.7366C39.3491 64.4781 36.1607 63.9752 33.5209 63.0124C30.8984 62.056 28.787 60.6368 27.3455 59.4799C26.6195 58.8973 26.049 58.3696 25.6533 57.9801C25.455 57.7849 25.2996 57.6235 25.1894 57.5058C25.1343 57.447 25.0904 57.399 25.0581 57.3632L25.0182 57.3186L25.0048 57.3035L24.9997 57.2977L24.9976 57.2953C24.9967 57.2942 24.9958 57.2932 26.8799 55.65L24.9958 57.2932C24.0883 56.2526 24.1962 54.6733 25.2368 53.7659Z" fill="black"/>
<path fill-rule="evenodd" clip-rule="evenodd" d="M83.56 69.8C61.6895 69.8 43.96 87.5295 43.96 109.4C43.96 131.27 61.6895 149 83.56 149C105.43 149 123.16 131.27 123.16 109.4C123.16 87.5295 105.43 69.8 83.56 69.8ZM38.96 109.4C38.96 84.7681 58.9281 64.8 83.56 64.8C108.192 64.8 128.16 84.7681 128.16 109.4C128.16 134.032 108.192 154 83.56 154C58.9281 154 38.96 134.032 38.96 109.4Z" fill="black"/>
<path d="M101.75 102.27C104.627 102.27 106.96 99.9374 106.96 97.06C106.96 94.1826 104.627 91.85 101.75 91.85C98.8726 91.85 96.54 94.1826 96.54 97.06C96.54 99.9374 98.8726 102.27 101.75 102.27Z" fill="black"/>
<path d="M77.9405 102.27C80.8179 102.27 83.1505 99.9374 83.1505 97.06C83.1505 94.1826 80.8179 91.85 77.9405 91.85C75.0631 91.85 72.7305 94.1826 72.7305 97.06C72.7305 99.9374 75.0631 102.27 77.9405 102.27Z" fill="black"/>
<path fill-rule="evenodd" clip-rule="evenodd" d="M100.461 110.801C101.369 109.766 102.944 109.66 103.983 110.566C105.024 111.473 105.131 113.053 104.224 114.093L102.34 112.45C104.224 114.093 104.223 114.094 104.222 114.095L104.22 114.098L104.215 114.103L104.202 114.119L104.162 114.163C104.129 114.199 104.085 114.247 104.03 114.306C103.92 114.423 103.765 114.585 103.567 114.78C103.171 115.17 102.6 115.697 101.874 116.28C100.433 117.437 98.3214 118.856 95.6989 119.812C93.0591 120.775 89.8707 121.278 86.3576 120.537C82.8385 119.794 79.1895 117.843 75.5701 114.216C74.5949 113.238 74.5967 111.655 75.5741 110.68C76.5515 109.705 78.1344 109.707 79.1096 110.684C82.1602 113.742 84.9712 115.134 87.3902 115.644C89.8153 116.156 92.0431 115.824 93.9858 115.115C95.9458 114.4 97.5832 113.313 98.7448 112.38C99.3204 111.918 99.765 111.506 100.059 111.217C100.206 111.072 100.314 110.96 100.381 110.888C100.415 110.852 100.438 110.827 100.45 110.813L100.46 110.801L100.459 110.804M100.461 110.801C100.46 110.802 100.458 110.804 100.457 110.805L100.461 110.801Z" fill="black"/>
</svg>
