<svg width="162" height="162" viewBox="0 0 162 162" fill="none" xmlns="http://www.w3.org/2000/svg">
<path fill-rule="evenodd" clip-rule="evenodd" d="M22.3398 34.5898C22.3398 33.2091 23.4591 32.0898 24.8398 32.0898H137.16C138.541 32.0898 139.66 33.2091 139.66 34.5898V131.65C139.66 139.352 136.6 146.738 131.154 152.184C125.708 157.63 118.322 160.69 110.62 160.69H51.3898C43.688 160.69 36.3015 157.63 30.8555 152.184C25.4094 146.738 22.3498 139.352 22.3498 131.65V34.815C22.3432 34.7408 22.3398 34.6657 22.3398 34.5898ZM27.3498 37.0898V131.65C27.3498 138.026 29.8826 144.14 34.391 148.649C38.8994 153.157 45.014 155.69 51.3898 155.69H110.62C116.996 155.69 123.11 153.157 127.619 148.649C132.127 144.14 134.66 138.026 134.66 131.65V37.0898H27.3498Z" fill="black"/>
<path fill-rule="evenodd" clip-rule="evenodd" d="M1.04004 34.46C1.04004 33.0792 2.15933 31.96 3.54004 31.96H158.46C159.841 31.96 160.96 33.0792 160.96 34.46C160.96 35.8407 159.841 36.96 158.46 36.96H3.54004C2.15933 36.96 1.04004 35.8407 1.04004 34.46Z" fill="black"/>
<path fill-rule="evenodd" clip-rule="evenodd" d="M77.6283 1.30963L77.64 1.30957L84.3675 1.3096C92.8949 1.33534 101.066 4.73425 107.096 10.7641C113.125 16.7939 116.524 24.9647 116.55 33.4921C116.554 34.8728 115.438 35.9954 114.058 35.9996C112.677 36.0038 111.554 34.8878 111.55 33.5071C111.528 26.3006 108.656 19.3954 103.56 14.2996C98.4651 9.20464 91.5614 6.33232 84.3562 6.3096H77.646C70.4495 6.34491 63.5583 9.22249 58.4737 14.3157C53.3878 19.4102 50.5217 26.3085 50.5 33.5071C50.4958 34.8878 49.3732 36.0037 47.9925 35.9996C46.6118 35.9954 45.4959 34.8728 45.5 33.4921C45.5257 24.974 48.9171 16.8114 54.9352 10.7831C60.9534 4.75484 69.1103 1.34963 77.6283 1.30963Z" fill="black"/>
<path fill-rule="evenodd" clip-rule="evenodd" d="M53.1299 59.3701C54.5106 59.3701 55.6299 60.4894 55.6299 61.8701V116.24C55.6299 117.621 54.5106 118.74 53.1299 118.74C51.7492 118.74 50.6299 117.621 50.6299 116.24V61.8701C50.6299 60.4894 51.7492 59.3701 53.1299 59.3701Z" fill="black"/>
<path fill-rule="evenodd" clip-rule="evenodd" d="M80.4902 59.3701C81.8709 59.3701 82.9902 60.4894 82.9902 61.8701V116.24C82.9902 117.621 81.8709 118.74 80.4902 118.74C79.1095 118.74 77.9902 117.621 77.9902 116.24V61.8701C77.9902 60.4894 79.1095 59.3701 80.4902 59.3701Z" fill="black"/>
<path fill-rule="evenodd" clip-rule="evenodd" d="M108.87 59.3701C110.251 59.3701 111.37 60.4894 111.37 61.8701V116.24C111.37 117.621 110.251 118.74 108.87 118.74C107.489 118.74 106.37 117.621 106.37 116.24V61.8701C106.37 60.4894 107.489 59.3701 108.87 59.3701Z" fill="black"/>
</svg>
