<svg width="162" height="162" viewBox="0 0 162 162" fill="none" xmlns="http://www.w3.org/2000/svg">
<path fill-rule="evenodd" clip-rule="evenodd" d="M28.56 23.98C22.9082 23.98 17.488 26.2251 13.4916 30.2215C9.49515 34.2179 7.25 39.6382 7.25 45.29V122.208C7.2575 127.856 9.50558 133.27 13.5008 137.262C17.4961 141.254 22.9122 143.497 28.56 143.5C28.5603 143.5 28.5607 143.5 28.561 143.5H125.53L154.75 117.537V45.29C154.75 39.6382 152.505 34.2179 148.508 30.2215C144.512 26.2251 139.092 23.98 133.44 23.98H119.25C117.869 23.98 116.75 22.8607 116.75 21.48C116.75 20.0993 117.869 18.98 119.25 18.98H133.44C140.418 18.98 147.11 21.7519 152.044 26.686C156.978 31.6201 159.75 38.3121 159.75 45.29V118.66C159.75 119.374 159.444 120.054 158.911 120.529L128.141 147.869C127.683 148.275 127.092 148.5 126.48 148.5H28.5589C21.5861 148.497 14.8994 145.727 9.96675 140.799C5.03413 135.87 2.25878 129.186 2.25 122.213L2.25 45.29C2.25 38.3121 5.02194 31.6201 9.95602 26.686C14.8901 21.7519 21.5822 18.98 28.56 18.98H41.47C42.8507 18.98 43.97 20.0993 43.97 21.48C43.97 22.8607 42.8507 23.98 41.47 23.98H28.56Z" fill="black"/>
<path fill-rule="evenodd" clip-rule="evenodd" d="M53.3096 21.48C53.3096 20.0993 54.4289 18.98 55.8096 18.98H106.48C107.86 18.98 108.98 20.0993 108.98 21.48C108.98 22.8607 107.86 23.98 106.48 23.98H55.8096C54.4289 23.98 53.3096 22.8607 53.3096 21.48Z" fill="black"/>
<path fill-rule="evenodd" clip-rule="evenodd" d="M5.74023 54.5098C5.74023 53.1291 6.85952 52.0098 8.24023 52.0098H153.76C155.141 52.0098 156.26 53.1291 156.26 54.5098C156.26 55.8905 155.141 57.0098 153.76 57.0098H8.24023C6.85952 57.0098 5.74023 55.8905 5.74023 54.5098Z" fill="black"/>
<path fill-rule="evenodd" clip-rule="evenodd" d="M47.8103 16.47C46.413 16.47 45.2803 17.6027 45.2803 19V32.76C45.2803 34.1573 46.413 35.29 47.8103 35.29H50.4503C51.8475 35.29 52.9803 34.1573 52.9803 32.76V19C52.9803 17.6027 51.8475 16.47 50.4503 16.47H47.8103ZM40.2803 19C40.2803 14.8413 43.6516 11.47 47.8103 11.47H50.4503C54.609 11.47 57.9803 14.8413 57.9803 19V32.76C57.9803 36.9187 54.609 40.29 50.4503 40.29H47.8103C43.6516 40.29 40.2803 36.9187 40.2803 32.76V19Z" fill="black"/>
<path fill-rule="evenodd" clip-rule="evenodd" d="M111.54 16.47C110.142 16.47 109.01 17.6027 109.01 19V32.76C109.01 34.1573 110.142 35.29 111.54 35.29H114.18C115.577 35.29 116.71 34.1573 116.71 32.76V19C116.71 17.6027 115.577 16.47 114.18 16.47H111.54ZM104.01 19C104.01 14.8413 107.381 11.47 111.54 11.47H114.18C118.338 11.47 121.71 14.8413 121.71 19V32.76C121.71 36.9187 118.338 40.29 114.18 40.29H111.54C107.381 40.29 104.01 36.9187 104.01 32.76V19Z" fill="black"/>
<path fill-rule="evenodd" clip-rule="evenodd" d="M135.565 120.44C135.113 120.446 134.666 120.538 134.247 120.711C133.816 120.89 133.423 121.152 133.093 121.483C132.762 121.813 132.5 122.206 132.321 122.638C132.142 123.07 132.05 123.532 132.05 124C132.05 124.116 132.042 124.231 132.026 124.345L128.956 146.345C128.765 147.713 127.502 148.667 126.134 148.476C124.767 148.285 123.813 147.022 124.004 145.654L127.052 123.811C127.075 122.752 127.295 121.705 127.701 120.724C128.132 119.686 128.762 118.742 129.557 117.947C130.352 117.152 131.295 116.522 132.334 116.092C133.373 115.661 134.486 115.44 135.61 115.44C135.644 115.44 135.678 115.441 135.713 115.442L157.353 116.332C158.732 116.389 159.804 117.553 159.748 118.933C159.691 120.312 158.527 121.385 157.147 121.328L135.565 120.44Z" fill="black"/>
<path d="M39.501 86.686C42.6076 86.686 45.126 84.1676 45.126 81.061C45.126 77.9544 42.6076 75.436 39.501 75.436C36.3944 75.436 33.876 77.9544 33.876 81.061C33.876 84.1676 36.3944 86.686 39.501 86.686Z" fill="black"/>
<path d="M67.8438 86.686C70.9504 86.686 73.4688 84.1676 73.4688 81.061C73.4688 77.9544 70.9504 75.436 67.8438 75.436C64.7372 75.436 62.2188 77.9544 62.2188 81.061C62.2188 84.1676 64.7372 86.686 67.8438 86.686Z" fill="black"/>
<path d="M96.1865 86.686C99.2931 86.686 101.812 84.1676 101.812 81.061C101.812 77.9544 99.2931 75.436 96.1865 75.436C93.0799 75.436 90.5615 77.9544 90.5615 81.061C90.5615 84.1676 93.0799 86.686 96.1865 86.686Z" fill="black"/>
<path d="M124.529 86.686C127.636 86.686 130.154 84.1676 130.154 81.061C130.154 77.9544 127.636 75.436 124.529 75.436C121.423 75.436 118.904 77.9544 118.904 81.061C118.904 84.1676 121.423 86.686 124.529 86.686Z" fill="black"/>
<path d="M39.501 116.418C42.6076 116.418 45.126 113.9 45.126 110.793C45.126 107.686 42.6076 105.168 39.501 105.168C36.3944 105.168 33.876 107.686 33.876 110.793C33.876 113.9 36.3944 116.418 39.501 116.418Z" fill="black"/>
<path d="M67.8438 116.418C70.9504 116.418 73.4688 113.9 73.4688 110.793C73.4688 107.686 70.9504 105.168 67.8438 105.168C64.7372 105.168 62.2188 107.686 62.2188 110.793C62.2188 113.9 64.7372 116.418 67.8438 116.418Z" fill="black"/>
<path d="M96.1865 116.418C99.2931 116.418 101.812 113.9 101.812 110.793C101.812 107.686 99.2931 105.168 96.1865 105.168C93.0799 105.168 90.5615 107.686 90.5615 110.793C90.5615 113.9 93.0799 116.418 96.1865 116.418Z" fill="black"/>
</svg>
