<svg width="162" height="162" viewBox="0 0 162 162" fill="none" xmlns="http://www.w3.org/2000/svg">
<path fill-rule="evenodd" clip-rule="evenodd" d="M78.999 36.2998C80.3797 36.2998 81.499 37.4191 81.499 38.7998V83.0235H122.457C123.838 83.0235 124.957 84.1428 124.957 85.5235C124.957 86.9042 123.838 88.0235 122.457 88.0235H78.999C77.6183 88.0235 76.499 86.9042 76.499 85.5235V38.7998C76.499 37.4191 77.6183 36.2998 78.999 36.2998Z" fill="black"/>
<path fill-rule="evenodd" clip-rule="evenodd" d="M123.542 20.4515C108.688 10.0145 90.5148 5.40222 72.481 7.49217C54.4471 9.58212 37.8108 18.2284 25.7371 31.7862C13.6634 45.3439 6.99476 62.8669 7 81.0214C7.0004 82.4021 5.88144 83.5217 4.50072 83.5221C3.12001 83.5225 2.0004 82.4035 2 81.0228C1.99441 61.6417 9.11358 42.9347 22.0031 28.4609C34.8926 13.9871 52.653 4.75658 71.9054 2.52541C91.1577 0.29425 110.558 5.21815 126.417 16.3603C142.275 27.5025 153.484 44.0855 157.911 62.9542C162.338 81.823 159.675 101.661 150.427 118.694C141.18 135.726 125.994 148.765 107.758 155.33C89.5227 161.895 69.5102 161.527 51.5282 154.297C33.5462 147.066 18.8495 133.478 10.2342 116.117C9.62046 114.88 10.1255 113.38 11.3623 112.766C12.5991 112.153 14.0993 112.658 14.7131 113.894C22.7831 130.157 36.5496 142.885 53.3935 149.658C70.2374 156.43 88.9833 156.775 106.065 150.626C123.146 144.476 137.371 132.263 146.033 116.308C154.695 100.353 157.19 81.7709 153.043 64.0964C148.896 46.4218 138.397 30.8885 123.542 20.4515Z" fill="black"/>
<path fill-rule="evenodd" clip-rule="evenodd" d="M10.4488 110.859C10.8219 109.53 12.2007 108.755 13.5294 109.127L38.6567 116.159C39.9863 116.532 40.7625 117.911 40.3904 119.241C40.0183 120.57 38.6388 121.347 37.3091 120.974L14.5872 114.615L7.96561 138.191C7.59227 139.521 6.21203 140.296 4.88275 139.922C3.55347 139.549 2.77853 138.169 3.15187 136.839L10.4488 110.859Z" fill="black"/>
</svg>
