<svg width="162" height="162" viewBox="0 0 162 162" fill="none" xmlns="http://www.w3.org/2000/svg">
<path fill-rule="evenodd" clip-rule="evenodd" d="M51.4687 81C51.4687 79.602 52.602 78.4688 54 78.4688L155.25 78.4688C156.648 78.4688 157.781 79.602 157.781 81C157.781 82.398 156.648 83.5313 155.25 83.5313L54 83.5313C52.602 83.5313 51.4687 82.398 51.4687 81Z" fill="black"/>
<path fill-rule="evenodd" clip-rule="evenodd" d="M51.4688 33.75C51.4688 32.352 52.602 31.2187 54 31.2187L155.25 31.2187C156.648 31.2187 157.781 32.352 157.781 33.75C157.781 35.148 156.648 36.2812 155.25 36.2812L54 36.2812C52.602 36.2812 51.4688 35.148 51.4688 33.75Z" fill="black"/>
<path fill-rule="evenodd" clip-rule="evenodd" d="M20.25 22.7812C14.1921 22.7812 9.28125 27.6921 9.28125 33.75C9.28125 39.8079 14.1921 44.7187 20.25 44.7187C26.3079 44.7187 31.2188 39.8079 31.2188 33.75C31.2188 27.6921 26.3079 22.7812 20.25 22.7812ZM4.21875 33.75C4.21875 24.8962 11.3962 17.7188 20.25 17.7188C29.1038 17.7188 36.2812 24.8962 36.2812 33.75C36.2812 42.6038 29.1038 49.7812 20.25 49.7812C11.3962 49.7812 4.21875 42.6038 4.21875 33.75Z" fill="black"/>
<path fill-rule="evenodd" clip-rule="evenodd" d="M20.25 70.0312C14.1921 70.0312 9.28125 74.9421 9.28125 81C9.28125 87.0579 14.1921 91.9687 20.25 91.9687C26.3079 91.9687 31.2188 87.0579 31.2188 81C31.2188 74.9421 26.3079 70.0312 20.25 70.0312ZM4.21875 81C4.21875 72.1462 11.3962 64.9688 20.25 64.9688C29.1038 64.9688 36.2812 72.1462 36.2812 81C36.2812 89.8538 29.1038 97.0312 20.25 97.0312C11.3962 97.0312 4.21875 89.8538 4.21875 81Z" fill="black"/>
<path fill-rule="evenodd" clip-rule="evenodd" d="M20.25 117.281C14.1921 117.281 9.28125 122.192 9.28125 128.25C9.28125 134.308 14.1921 139.219 20.25 139.219C26.3079 139.219 31.2188 134.308 31.2188 128.25C31.2188 122.192 26.3079 117.281 20.25 117.281ZM4.21875 128.25C4.21875 119.396 11.3962 112.219 20.25 112.219C29.1038 112.219 36.2812 119.396 36.2812 128.25C36.2812 137.104 29.1038 144.281 20.25 144.281C11.3962 144.281 4.21875 137.104 4.21875 128.25Z" fill="black"/>
<path fill-rule="evenodd" clip-rule="evenodd" d="M51.4687 128.25C51.4687 126.852 52.602 125.719 54 125.719L155.25 125.719C156.648 125.719 157.781 126.852 157.781 128.25C157.781 129.648 156.648 130.781 155.25 130.781L54 130.781C52.602 130.781 51.4687 129.648 51.4687 128.25Z" fill="black"/>
</svg>
